<svg width="35" height="35" viewBox="0 0 35 35" fill="none" xmlns="http://www.w3.org/2000/svg">
<path d="M14.8865 29.7733C12.9307 29.7766 10.9935 29.3936 9.18624 28.6461C7.37895 27.8986 5.73716 26.8013 4.35518 25.4174C-1.45173 19.6105 -1.45173 10.1609 4.35518 4.35486C10.1621 -1.45119 19.6117 -1.45205 25.4178 4.35486C27.5016 6.43689 28.9209 9.09033 29.4961 11.9793C30.0712 14.8683 29.7764 17.863 28.6489 20.5844C27.5214 23.3058 25.6119 25.6315 23.162 27.2672C20.7122 28.9029 17.8322 29.775 14.8865 29.7733ZM14.8865 2.5695C13.2686 2.56641 11.6661 2.88282 10.1708 3.50058C8.67557 4.11833 7.31701 5.02527 6.17311 6.16936C1.3733 10.9743 1.3733 18.7911 6.17311 23.5961C7.311 24.7678 8.67048 25.7016 10.1725 26.3432C11.6745 26.9848 13.2891 27.3214 14.9223 27.3334C16.5556 27.3455 18.175 27.0327 19.6863 26.4133C21.1976 25.7939 22.5707 24.8802 23.7257 23.7254C24.8807 22.5706 25.7947 21.1977 26.4144 19.6865C27.0341 18.1753 27.3472 16.556 27.3354 14.9228C27.3237 13.2895 26.9875 11.6748 26.3461 10.1727C25.7048 8.67057 24.7713 7.31091 23.5998 6.17279C22.4566 5.02739 21.0983 4.11913 19.603 3.50018C18.1077 2.88124 16.5048 2.56379 14.8865 2.56607V2.5695Z" fill="#FFF5EE"/>
<path d="M14.8865 24.8646C12.578 24.8631 10.3415 24.0612 8.55795 22.5956C6.7744 21.1299 5.5542 19.0913 5.10523 16.8269C4.65626 14.5624 5.0063 12.2124 6.09571 10.1772C7.18513 8.14191 8.94651 6.54733 11.0798 5.66512C13.213 4.78291 15.5862 4.66764 17.7949 5.33896C20.0036 6.01027 21.9113 7.42664 23.1928 9.34674C24.4743 11.2668 25.0505 13.5719 24.8231 15.8691C24.5957 18.1664 23.5788 20.3137 21.9457 21.9453C21.0193 22.8729 19.9188 23.6083 18.7074 24.1093C17.4959 24.6103 16.1975 24.867 14.8865 24.8646ZM14.8865 7.47733C13.1725 7.47842 11.5119 8.07378 10.1876 9.16196C8.86333 10.2501 7.95732 11.7638 7.62393 13.4451C7.29054 15.1264 7.5504 16.8712 8.35924 18.3824C9.16809 19.8936 10.4759 21.0775 12.0598 21.7326C13.6437 22.3877 15.4057 22.4733 17.0457 21.9749C18.6856 21.4765 20.102 20.4248 21.0536 18.9992C22.0051 17.5736 22.4329 15.8621 22.2641 14.1565C22.0953 12.4508 21.3403 10.8564 20.1277 9.64495C19.4399 8.95629 18.6228 8.41029 17.7234 8.0383C16.8239 7.66631 15.8599 7.47567 14.8865 7.47733Z" fill="#FFF5EE"/>
<path d="M31.4886 35.0025C31.0269 35.0037 30.5695 34.9134 30.1429 34.7369C29.7163 34.5604 29.3288 34.3011 29.003 33.9739L21.895 26.8651C21.6538 26.6239 21.5183 26.2968 21.5183 25.9557C21.5183 25.6146 21.6538 25.2875 21.895 25.0463C22.1362 24.8051 22.4633 24.6696 22.8044 24.6696C23.1455 24.6696 23.4726 24.8051 23.7138 25.0463L30.8183 32.1543C30.9049 32.246 31.009 32.3193 31.1244 32.3701C31.2398 32.4208 31.3643 32.4479 31.4903 32.4497C31.6164 32.4515 31.7415 32.428 31.8584 32.3806C31.9752 32.3331 32.0813 32.2628 32.1705 32.1736C32.2596 32.0845 32.33 31.9783 32.3774 31.8615C32.4248 31.7447 32.4483 31.6195 32.4465 31.4935C32.4447 31.3674 32.4176 31.243 32.3669 31.1276C32.3162 31.0121 32.2428 30.9081 32.1511 30.8215L25.0432 23.7135C24.9237 23.5941 24.829 23.4523 24.7644 23.2963C24.6997 23.1402 24.6665 22.973 24.6665 22.8041C24.6665 22.6352 24.6997 22.468 24.7644 22.3119C24.829 22.1559 24.9237 22.0141 25.0432 21.8947C25.1626 21.7753 25.3043 21.6806 25.4604 21.6159C25.6164 21.5513 25.7837 21.518 25.9525 21.518C26.1214 21.518 26.2887 21.5513 26.4447 21.6159C26.6007 21.6806 26.7425 21.7753 26.8619 21.8947L33.9699 29.0027C34.4617 29.4942 34.7966 30.1205 34.9323 30.8023C35.0681 31.4842 34.9985 32.191 34.7324 32.8333C34.4663 33.4756 34.0156 34.0246 33.4374 34.4107C32.8593 34.7968 32.1796 35.0028 31.4843 35.0025H31.4886Z" fill="#FFF5EE"/>
</svg>
